<?xml version="1.0" standalone="no"?>
<!DOCTYPE svg PUBLIC "-//W3C//DTD SVG 20010904//EN"
 "http://www.w3.org/TR/2001/REC-SVG-20010904/DTD/svg10.dtd">
<svg version="1.0" xmlns="http://www.w3.org/2000/svg"
 width="154.000000pt" height="56.000000pt" viewBox="0 0 154.000000 56.000000"
 preserveAspectRatio="xMidYMid meet">

<g transform="translate(0.000000,56.000000) scale(0.100000,-0.100000)"
fill="#000000" stroke="none">
<path d="M1126 504 c-3 -9 -6 -44 -6 -79 0 -69 -14 -91 -50 -80 -27 8 -24 52
3 47 10 -2 17 3 17 13 0 9 -9 15 -24 15 -26 0 -42 -15 -48 -45 -2 -11 -11 -21
-21 -23 -14 -3 -17 4 -17 32 0 47 -27 50 -32 4 -2 -25 -8 -33 -23 -33 -15 0
-21 8 -23 33 -4 35 -13 40 -32 17 -12 -14 -16 -13 -36 6 -18 17 -26 19 -43 10
-11 -7 -24 -23 -27 -38 -15 -59 44 -84 84 -36 16 18 26 24 29 15 13 -33 31
-38 149 -37 l119 0 3 27 c4 30 26 53 42 43 6 -4 8 -15 5 -24 -12 -39 3 -48 73
-49 87 -1 99 3 117 39 18 34 37 38 35 7 -4 -49 9 -59 54 -42 27 11 19 35 -9
28 -23 -6 -25 -4 -19 25 6 27 4 31 -16 31 -13 0 -28 7 -35 17 -17 23 -35 7
-29 -26 5 -22 1 -32 -17 -45 -27 -19 -49 -22 -31 -4 15 15 16 55 1 63 -22 14
-57 -5 -64 -35 -10 -46 -35 -39 -35 10 0 36 -3 40 -24 40 -14 0 -28 -4 -31
-10 -16 -25 -22 -6 -9 26 16 38 11 74 -11 74 -7 0 -16 -7 -19 -16z m-296 -139
c0 -7 -7 -16 -15 -19 -18 -7 -30 16 -21 40 5 13 9 14 21 4 8 -7 15 -18 15 -25z
m473 10 c-3 -8 -9 -15 -14 -15 -10 0 -12 24 -3 33 11 11 24 -3 17 -18z"/>
<path d="M703 493 c-4 -9 -1 -19 5 -21 16 -5 15 -45 -3 -88 -27 -66 -75 -23
-75 69 0 35 -4 47 -15 47 -21 0 -20 -86 3 -129 22 -44 46 -60 69 -45 29 18 53
58 60 99 3 22 13 45 22 52 20 14 15 18 -27 26 -25 5 -34 3 -39 -10z"/>
<path d="M267 352 c-20 -12 -26 -23 -23 -37 57 -253 46 -244 84 -72 l20 87
-27 19 c-25 18 -28 18 -54 3z"/>
<path d="M627 254 c-3 -3 -3 -21 0 -40 4 -27 1 -38 -13 -49 -18 -14 -18 -16
-1 -26 10 -6 17 -22 17 -39 0 -38 18 -39 22 -2 2 21 9 28 31 30 24 3 27 0 27
-27 0 -21 5 -31 15 -31 10 0 15 10 15 34 0 26 5 36 20 41 11 3 20 11 20 16 0
5 -9 9 -20 9 -16 0 -20 7 -20 35 0 24 -5 35 -15 35 -11 0 -15 -11 -15 -41 0
-38 -1 -40 -27 -37 -26 3 -28 7 -31 51 -3 44 -10 56 -25 41z"/>
<path d="M1087 210 c-6 -16 -15 -30 -20 -30 -4 0 -5 -15 -2 -33 5 -24 2 -37
-9 -46 -13 -11 -17 -11 -22 2 -3 9 -3 20 0 26 19 31 -35 56 -62 29 -9 -9 -12
-9 -12 0 0 7 -6 12 -14 12 -9 0 -16 -12 -18 -32 -2 -25 -8 -33 -23 -33 -15 0
-20 7 -20 29 0 16 -6 31 -12 33 -9 3 -13 -6 -13 -24 0 -16 -5 -34 -11 -40 -20
-20 -39 -3 -39 33 0 40 -17 45 -26 9 -4 -16 0 -34 9 -49 14 -21 22 -24 87 -22
69 1 70 1 88 35 25 50 42 51 42 3 l0 -39 125 -1 126 -1 16 35 c20 42 39 39 35
-5 -4 -31 -2 -32 30 -29 22 2 34 9 36 21 3 16 1 17 -17 7 -23 -12 -24 -9 -21
33 1 22 -3 27 -21 27 -12 0 -27 7 -34 17 -17 23 -35 7 -29 -26 6 -30 -15 -61
-43 -61 -12 0 -13 3 -3 14 6 8 10 25 8 38 -4 28 -46 32 -59 6 -5 -10 -13 -26
-18 -35 -11 -24 -35 -23 -39 1 -3 12 5 27 19 37 13 10 18 19 12 19 -8 0 -13
14 -13 35 0 43 -18 46 -33 5z m113 -79 c0 -12 -20 -25 -27 -18 -7 7 6 27 18
27 5 0 9 -4 9 -9z"/>
</g>
</svg>
