<?xml version="1.0" standalone="no"?>
<!DOCTYPE svg PUBLIC "-//W3C//DTD SVG 20010904//EN"
 "http://www.w3.org/TR/2001/REC-SVG-20010904/DTD/svg10.dtd">
<svg version="1.0" xmlns="http://www.w3.org/2000/svg"
 width="101.000000pt" height="56.000000pt" viewBox="0 0 101.000000 56.000000"
 preserveAspectRatio="xMidYMid meet">

<g transform="translate(0.000000,56.000000) scale(0.100000,-0.100000)"
fill="#000000" stroke="none">
<path d="M603 508 c-4 -7 -10 -47 -13 -88 -5 -70 -7 -75 -29 -78 -28 -4 -53
21 -44 44 3 8 15 14 26 14 15 0 18 3 10 11 -18 18 -53 0 -60 -31 -6 -32 -32
-48 -45 -28 -4 7 -6 22 -3 34 9 38 -9 36 -20 -3 -8 -28 -16 -38 -30 -38 -15 0
-21 8 -23 33 -4 36 -5 37 -33 20 -17 -11 -22 -10 -33 5 -18 23 -42 21 -60 -5
-20 -28 -20 -43 0 -62 24 -25 52 -19 69 14 16 31 35 40 35 17 0 -8 9 -22 21
-33 17 -15 23 -16 40 -6 15 10 23 10 39 0 15 -10 22 -10 31 -1 9 9 18 9 31 2
11 -6 37 -8 58 -4 33 5 40 11 45 36 7 29 36 54 49 42 3 -3 6 -21 6 -40 0 -37
18 -50 47 -35 12 7 25 7 37 0 10 -5 33 -7 53 -3 26 5 37 13 45 36 6 19 17 29
30 29 17 0 19 -5 13 -30 -5 -23 -3 -32 11 -37 19 -7 46 7 52 28 4 11 2 12 -9
2 -24 -24 -40 -15 -37 20 3 27 -1 33 -20 35 -13 2 -26 10 -29 18 -9 25 -23 15
-23 -17 0 -41 -16 -69 -40 -69 -23 0 -24 4 -8 30 11 16 10 23 -5 37 -20 21
-50 8 -56 -23 -4 -22 -20 -44 -32 -44 -5 0 -9 18 -9 40 0 48 -21 62 -50 35
-26 -23 -37 -12 -22 20 23 50 10 111 -15 73z m-308 -128 c7 -23 -1 -40 -20
-40 -16 0 -26 25 -19 45 9 21 32 19 39 -5z m485 6 c0 -16 -18 -31 -27 -22 -8
8 5 36 17 36 5 0 10 -6 10 -14z"/>
<path d="M175 499 c-4 -5 1 -19 11 -30 15 -16 16 -24 6 -57 -7 -21 -21 -47
-31 -56 -18 -17 -20 -17 -40 3 -20 20 -23 34 -26 105 -1 16 -7 32 -15 34 -10
4 -12 -7 -7 -51 10 -104 56 -149 102 -103 21 21 45 81 45 114 0 7 7 15 15 18
8 4 12 10 9 16 -3 5 -12 7 -20 4 -7 -3 -16 -1 -19 4 -8 13 -22 13 -30 -1z"/>
<path d="M100 211 c0 -42 -3 -51 -17 -51 -17 -1 -17 -1 0 -14 10 -8 17 -26 17
-45 0 -41 18 -40 22 2 3 28 6 32 33 32 27 0 30 -4 33 -32 4 -44 22 -42 22 2 0
22 6 38 15 41 8 4 15 10 15 15 0 4 -7 6 -15 3 -12 -5 -15 3 -15 35 0 51 -18
54 -22 4 -3 -35 -6 -38 -35 -41 -33 -3 -33 -3 -33 42 0 25 -4 48 -10 51 -6 4
-10 -13 -10 -44z"/>
<path d="M560 215 c-6 -14 -10 -30 -10 -35 0 -5 -6 -10 -12 -13 -10 -3 -10 -7
-2 -18 15 -18 0 -59 -21 -59 -10 0 -15 10 -15 34 0 42 -14 53 -47 35 -20 -11
-26 -11 -33 1 -8 12 -10 12 -14 0 -3 -8 -6 -26 -8 -40 -2 -17 -9 -25 -23 -25
-16 0 -21 9 -26 40 -5 41 -15 34 -21 -15 -2 -17 -9 -25 -23 -25 -15 0 -21 8
-23 33 -3 34 -16 42 -26 17 -8 -21 10 -64 29 -72 9 -3 27 -1 40 5 15 7 27 7
30 2 3 -5 19 -8 35 -7 23 2 32 9 44 40 19 49 44 49 48 0 l3 -38 100 -2 c134
-2 149 2 162 37 6 17 19 30 28 30 13 0 15 -7 9 -35 -5 -31 -4 -35 14 -35 27 0
52 10 52 21 0 5 -12 6 -27 3 -25 -7 -26 -6 -20 25 6 26 4 31 -13 31 -11 0 -24
9 -30 20 -14 26 -30 17 -30 -16 0 -36 -17 -64 -39 -64 -17 0 -18 3 -8 30 9 25
9 33 -2 39 -24 15 -51 0 -59 -33 -10 -38 -47 -49 -57 -17 -8 25 1 41 21 41 8
0 14 5 14 10 0 6 -5 10 -11 10 -7 0 -8 11 -4 29 8 38 -12 51 -25 16z m110 -85
c0 -11 -7 -20 -15 -20 -15 0 -21 21 -8 33 12 13 23 7 23 -13z"/>
</g>
</svg>
